<svg width="104" height="32" viewBox="0 0 104 32" fill="none" xmlns="http://www.w3.org/2000/svg">
<path d="M28 4C28.3536 4 28.6928 4.14048 28.9428 4.39052C29.1929 4.64057 29.3333 4.97971 29.3333 5.33333V12.6667C28.4493 12.6667 27.6014 13.0179 26.9763 13.643C26.3512 14.2681 26 15.1159 26 16C26 16.8841 26.3512 17.7319 26.9763 18.357C27.6014 18.9821 28.4493 19.3333 29.3333 19.3333V26.6667C29.3333 27.0203 29.1929 27.3594 28.9428 27.6095C28.6928 27.8595 28.3536 28 28 28H4.00001C3.64638 28 3.30724 27.8595 3.0572 27.6095C2.80715 27.3594 2.66667 27.0203 2.66667 26.6667V19.3333C3.55073 19.3333 4.39857 18.9821 5.02369 18.357C5.64882 17.7319 6.00001 16.8841 6.00001 16C6.00001 15.1159 5.64882 14.2681 5.02369 13.643C4.39857 13.0179 3.55073 12.6667 2.66667 12.6667V5.33333C2.66667 4.97971 2.80715 4.64057 3.0572 4.39052C3.30724 4.14048 3.64638 4 4.00001 4H28ZM21.3333 12H10.6667V20H21.3333V12Z" fill="#0059F7"/>
<path d="M52.136 24.456C50.584 24.456 49.272 24.208 48.2 23.712C47.128 23.216 46.312 22.536 45.752 21.672C45.208 20.808 44.936 19.816 44.936 18.696H48.272C48.272 19.176 48.4 19.632 48.656 20.064C48.912 20.496 49.32 20.848 49.88 21.12C50.456 21.392 51.208 21.528 52.136 21.528C53.384 21.528 54.32 21.272 54.944 20.76C55.568 20.248 55.88 19.624 55.88 18.888C55.88 18.28 55.616 17.784 55.088 17.4C54.56 17.016 53.744 16.776 52.64 16.68L51.104 16.56C49.424 16.416 48.08 15.896 47.072 15C46.08 14.088 45.584 12.888 45.584 11.4C45.584 10.296 45.84 9.336 46.352 8.52C46.88 7.704 47.624 7.08 48.584 6.648C49.544 6.2 50.664 5.976 51.944 5.976C53.256 5.976 54.392 6.208 55.352 6.672C56.328 7.136 57.08 7.792 57.608 8.64C58.136 9.472 58.4 10.456 58.4 11.592H55.064C55.064 10.888 54.8 10.264 54.272 9.72C53.76 9.176 52.984 8.904 51.944 8.904C50.92 8.904 50.16 9.152 49.664 9.648C49.168 10.144 48.92 10.728 48.92 11.4C48.92 11.944 49.112 12.424 49.496 12.84C49.896 13.24 50.536 13.472 51.416 13.536L52.952 13.68C54.2 13.792 55.288 14.064 56.216 14.496C57.16 14.912 57.896 15.488 58.424 16.224C58.952 16.96 59.216 17.848 59.216 18.888C59.216 19.992 58.92 20.968 58.328 21.816C57.752 22.648 56.936 23.296 55.88 23.76C54.824 24.224 53.576 24.456 52.136 24.456ZM65.2839 24.336C63.8439 24.336 62.6919 23.968 61.8279 23.232C60.9799 22.496 60.5559 21.464 60.5559 20.136C60.5559 18.712 61.0679 17.664 62.0919 16.992C63.1319 16.304 64.5239 15.96 66.2679 15.96H68.9319V15.84C68.9319 14.352 68.1799 13.608 66.6759 13.608C66.2759 13.608 65.7959 13.616 65.2359 13.632C64.6759 13.648 64.1079 13.672 63.5319 13.704C62.9719 13.72 62.4679 13.744 62.0199 13.776V10.944C62.5639 10.896 63.2119 10.856 63.9639 10.824C64.7319 10.792 65.4359 10.776 66.0759 10.776C68.0759 10.776 69.5799 11.184 70.5879 12C71.6119 12.8 72.1239 14.104 72.1239 15.912V24H69.4839V21.504C68.8919 23.392 67.4919 24.336 65.2839 24.336ZM66.2199 21.96C66.6679 21.96 67.0919 21.88 67.4919 21.72C67.8919 21.544 68.2199 21.256 68.4759 20.856C68.7479 20.44 68.8999 19.88 68.9319 19.176V17.952H66.2199C65.4519 17.952 64.8599 18.144 64.4439 18.528C64.0439 18.896 63.8439 19.376 63.8439 19.968C63.8439 20.576 64.0439 21.064 64.4439 21.432C64.8599 21.784 65.4519 21.96 66.2199 21.96ZM85.6093 9.408C84.9533 9.408 84.4733 9.24 84.1693 8.904C83.8653 8.552 83.7133 8.112 83.7133 7.584C83.7133 7.056 83.8653 6.624 84.1693 6.288C84.4733 5.952 84.9533 5.784 85.6093 5.784C86.2653 5.784 86.7453 5.952 87.0493 6.288C87.3693 6.624 87.5293 7.056 87.5293 7.584C87.5293 8.112 87.3693 8.552 87.0493 8.904C86.7453 9.24 86.2653 9.408 85.6093 9.408ZM75.5053 24V13.488H73.8973V11.04H75.5053V10.512C75.5053 9.024 75.9133 7.928 76.7293 7.224C77.5613 6.504 78.7853 6.144 80.4013 6.144H81.7453V8.712H80.1613C79.6653 8.712 79.2813 8.848 79.0093 9.12C78.7533 9.376 78.6253 9.744 78.6253 10.224V11.04H81.6253V13.488H78.6253V24H75.5053ZM84.4093 24V13.464H82.7533V10.968H87.7453V24H84.4093ZM94.7926 24.336C93.3526 24.336 92.2006 23.968 91.3366 23.232C90.4886 22.496 90.0646 21.464 90.0646 20.136C90.0646 18.712 90.5766 17.664 91.6006 16.992C92.6406 16.304 94.0326 15.96 95.7766 15.96H98.4406V15.84C98.4406 14.352 97.6886 13.608 96.1846 13.608C95.7846 13.608 95.3046 13.616 94.7446 13.632C94.1846 13.648 93.6166 13.672 93.0406 13.704C92.4806 13.72 91.9766 13.744 91.5286 13.776V10.944C92.0726 10.896 92.7206 10.856 93.4726 10.824C94.2406 10.792 94.9446 10.776 95.5846 10.776C97.5846 10.776 99.0886 11.184 100.097 12C101.121 12.8 101.633 14.104 101.633 15.912V24H98.9926V21.504C98.4006 23.392 97.0006 24.336 94.7926 24.336ZM95.7286 21.96C96.1766 21.96 96.6006 21.88 97.0006 21.72C97.4006 21.544 97.7286 21.256 97.9846 20.856C98.2566 20.44 98.4086 19.88 98.4406 19.176V17.952H95.7286C94.9606 17.952 94.3686 18.144 93.9526 18.528C93.5526 18.896 93.3526 19.376 93.3526 19.968C93.3526 20.576 93.5526 21.064 93.9526 21.432C94.3686 21.784 94.9606 21.96 95.7286 21.96Z" fill="white"/>
</svg>
